<svg width="20" height="20" viewBox="0 0 20 20" fill="none" xmlns="http://www.w3.org/2000/svg">
<path d="M9.16683 14.1672L10.8335 15.8338C10.9977 15.998 11.1926 16.1282 11.407 16.217C11.6215 16.3059 11.8514 16.3516 12.0835 16.3516C12.3157 16.3516 12.5456 16.3059 12.76 16.217C12.9745 16.1282 13.1694 15.998 13.3335 15.8338C13.4977 15.6697 13.6279 15.4748 13.7168 15.2603C13.8056 15.0459 13.8513 14.816 13.8513 14.5838C13.8513 14.3517 13.8056 14.1218 13.7168 13.9073C13.6279 13.6929 13.4977 13.498 13.3335 13.3338M11.6669 11.6671L13.7502 13.7505C14.0817 14.082 14.5314 14.2683 15.0002 14.2683C15.4691 14.2683 15.9187 14.082 16.2502 13.7505C16.5818 13.419 16.768 12.9693 16.768 12.5005C16.768 12.0316 16.5818 11.582 16.2502 11.2505L13.0169 8.01712C12.5481 7.54895 11.9127 7.28598 11.2502 7.28598C10.5877 7.28598 9.95226 7.54895 9.4835 8.01712L8.75016 8.75046C8.41864 9.08198 7.96899 9.26823 7.50015 9.26823C7.0313 9.26823 6.58166 9.08198 6.25013 8.75046C5.91861 8.41894 5.73236 7.9693 5.73236 7.50045C5.73236 7.03161 5.91861 6.58197 6.25013 6.25045L8.59183 3.90876C9.35204 3.15054 10.3434 2.66755 11.4091 2.53623C12.4747 2.40491 13.5537 2.63278 14.4752 3.18376L14.8669 3.41709C15.2217 3.63125 15.6436 3.70553 16.0502 3.62543L17.5003 3.33376M17.5003 2.50042L18.3336 11.6671H16.6669M2.50009 2.50042L1.66675 11.6671L7.08348 17.0839C7.415 17.4154 7.86464 17.6016 8.33349 17.6016C8.80234 17.6016 9.25198 17.4154 9.5835 17.0839C9.91503 16.7523 10.1013 16.3027 10.1013 15.8338C10.1013 15.365 9.91503 14.9154 9.5835 14.5838M2.50009 3.33376H9.16683" stroke="white" stroke-width="2" stroke-linecap="round" stroke-linejoin="round"/>
</svg>
