<svg width="33" height="33" viewBox="0 0 33 33" fill="none" xmlns="http://www.w3.org/2000/svg">
<path d="M15.2361 22.5587C13.839 23.2647 12.2673 23.5513 10.7109 23.3838C9.15453 23.2163 7.67987 22.6019 6.46494 21.6148C5.25001 20.6277 4.34675 19.31 3.86418 17.8209C3.38161 16.3317 3.34037 14.7348 3.74542 13.2227L10.9614 15.156C10.2554 13.7589 9.96882 12.1873 10.1363 10.6309C10.3038 9.07446 10.9182 7.59979 11.9053 6.38486C12.8924 5.16993 14.21 4.26667 15.6992 3.7841C17.1883 3.30154 18.7853 3.26029 20.2974 3.66534L18.3641 10.8813C19.7612 10.1753 21.3328 9.88874 22.8892 10.0562C24.4456 10.2237 25.9203 10.8381 27.1352 11.8252C28.3502 12.8123 29.2534 14.13 29.736 15.6191C30.2186 17.1083 30.2598 18.7053 29.8548 20.2173L22.6388 18.284C23.3448 19.6811 23.6313 21.2527 23.4639 22.8092C23.2964 24.3656 22.682 25.8402 21.6949 27.0552C20.7078 28.2701 19.3901 29.1733 17.901 29.6559C16.4118 30.1385 14.8148 30.1797 13.3028 29.7747L15.2361 22.5587Z" stroke="#67B502" stroke-width="1.9968" stroke-linecap="round" stroke-linejoin="round"/>
<path d="M16.8003 16.7202V16.7336" stroke="#67B502" stroke-width="1.9968" stroke-linecap="round" stroke-linejoin="round"/>
</svg>
