<svg width="20" height="20" viewBox="0 0 20 20" fill="none" xmlns="http://www.w3.org/2000/svg">
<g clip-path="url(#clip0_127_262)">
<path d="M15.0002 9.375C15.7281 9.37445 16.446 9.54365 17.097 9.86913C17.7479 10.1946 18.314 10.6674 18.7503 11.25" stroke="white" stroke-width="2" stroke-linecap="round" stroke-linejoin="round"/>
<path d="M1.25 11.25C1.68625 10.6674 2.25235 10.1946 2.90333 9.86913C3.55431 9.54365 4.27223 9.37445 5.00004 9.375" stroke="white" stroke-width="2" stroke-linecap="round" stroke-linejoin="round"/>
<path d="M10.0003 14.375C11.7262 14.375 13.1253 12.9759 13.1253 11.25C13.1253 9.52412 11.7262 8.125 10.0003 8.125C8.27437 8.125 6.87524 9.52412 6.87524 11.25C6.87524 12.9759 8.27437 14.375 10.0003 14.375Z" stroke="white" stroke-width="2" stroke-linecap="round" stroke-linejoin="round"/>
<path d="M5.62524 16.875C6.07391 16.1136 6.71351 15.4825 7.48081 15.0441C8.24811 14.6056 9.11655 14.375 10.0003 14.375C10.884 14.375 11.7525 14.6056 12.5198 15.0441C13.2871 15.4825 13.9267 16.1136 14.3753 16.875" stroke="white" stroke-width="2" stroke-linecap="round" stroke-linejoin="round"/>
<path d="M12.5784 6.25001C12.6953 5.79733 12.9367 5.38648 13.2754 5.06415C13.614 4.74181 14.0363 4.5209 14.4942 4.42649C14.9521 4.33209 15.4273 4.36798 15.8659 4.53009C16.3044 4.6922 16.6887 4.97403 16.9751 5.34358C17.2615 5.71312 17.4385 6.15557 17.4861 6.62068C17.5336 7.08579 17.4498 7.55492 17.2441 7.97478C17.0385 8.39465 16.7192 8.74843 16.3225 8.99595C15.9259 9.24346 15.4678 9.3748 15.0003 9.37503" stroke="white" stroke-width="2" stroke-linecap="round" stroke-linejoin="round"/>
<path d="M5.00023 9.37503C4.5327 9.3748 4.0746 9.24346 3.67795 8.99595C3.28131 8.74843 2.96203 8.39465 2.75636 7.97478C2.55069 7.55492 2.46687 7.08579 2.51444 6.62068C2.562 6.15557 2.73903 5.71312 3.02543 5.34358C3.31183 4.97403 3.69612 4.6922 4.13465 4.53009C4.57318 4.36798 5.04839 4.33209 5.50629 4.42649C5.9642 4.5209 6.38646 4.74181 6.72511 5.06415C7.06377 5.38648 7.30525 5.79733 7.42214 6.25001" stroke="white" stroke-width="2" stroke-linecap="round" stroke-linejoin="round"/>
</g>
<defs>
<clipPath id="clip0_127_262">
<rect width="20.0002" height="20.0001" fill="white"/>
</clipPath>
</defs>
</svg>
