<svg width="20" height="20" viewBox="0 0 20 20" fill="none" xmlns="http://www.w3.org/2000/svg">
<path d="M16.667 5.83301H9.16699" stroke="#67B502" stroke-width="1.66667" stroke-linecap="round" stroke-linejoin="round"/>
<path d="M11.667 14.167H4.16699" stroke="#67B502" stroke-width="1.66667" stroke-linecap="round" stroke-linejoin="round"/>
<path d="M14.167 16.6665C15.5477 16.6665 16.667 15.5472 16.667 14.1665C16.667 12.7858 15.5477 11.6665 14.167 11.6665C12.7863 11.6665 11.667 12.7858 11.667 14.1665C11.667 15.5472 12.7863 16.6665 14.167 16.6665Z" stroke="#67B502" stroke-width="1.66667" stroke-linecap="round" stroke-linejoin="round"/>
<path d="M5.83301 8.3335C7.21372 8.3335 8.33301 7.21421 8.33301 5.8335C8.33301 4.45278 7.21372 3.3335 5.83301 3.3335C4.4523 3.3335 3.33301 4.45278 3.33301 5.8335C3.33301 7.21421 4.4523 8.3335 5.83301 8.3335Z" stroke="#67B502" stroke-width="1.66667" stroke-linecap="round" stroke-linejoin="round"/>
</svg>
