<svg width="36" height="36" viewBox="0 0 36 36" fill="none" xmlns="http://www.w3.org/2000/svg">
<rect width="36" height="36" rx="18" fill="white"/>
<rect width="36" height="36" rx="18" fill="#F0F8E6" fill-opacity="0.2"/>
<rect x="0.4" y="0.4" width="35.2" height="35.2" rx="17.6" stroke="#D0E8B1" stroke-opacity="0.5" stroke-width="0.8"/>
<path opacity="0.15" d="M17.625 7.92627C14.1045 7.92627 11.25 10.7403 11.25 14.2113C11.25 17.8998 14.8987 19.1928 15.06 23.95C15.0519 23.9502 15.044 23.952 15.0366 23.9553C15.0292 23.9585 15.0225 23.9632 15.0169 23.9691C15.0114 23.9749 15.007 23.9818 15.0041 23.9894C15.0012 23.9969 14.9998 24.0049 15 24.013V26.9485C15 27.364 15.3345 27.6985 15.75 27.6985H15.9375C15.9375 27.9063 16.1048 28.0735 16.3125 28.0735H18.9375C19.1452 28.0735 19.3125 27.9063 19.3125 27.6985H19.5C19.9155 27.6985 20.25 27.364 20.25 26.9485V24.013C20.25 23.9968 20.2438 23.9812 20.2326 23.9695C20.2214 23.9578 20.2062 23.9508 20.19 23.95C20.3512 19.1928 24 17.8998 24 14.2113C24 10.7403 21.1455 7.92627 17.625 7.92627Z" fill="black"/>
<path d="M24.75 14.2113C24.75 17.983 20.925 19.2393 20.925 24.268H15.825C15.825 19.2393 12 17.983 12 14.2113C12 10.7403 14.8545 7.92627 18.375 7.92627C21.8962 7.92627 24.75 10.7403 24.75 14.2113Z" fill="#F2DD63"/>
<path d="M18.375 9.28281C17.086 9.28418 15.8499 9.79551 14.9365 10.7051C14.0232 11.6146 13.5067 12.8486 13.5 14.1376C13.5 14.237 13.5395 14.3324 13.6098 14.4027C13.6802 14.473 13.7755 14.5126 13.875 14.5126C13.9745 14.5126 14.0698 14.473 14.1402 14.4027C14.2105 14.3324 14.25 14.237 14.25 14.1376C14.253 13.0461 14.6891 12.0003 15.4625 11.2301C16.236 10.4599 17.2835 10.0282 18.375 10.0298C18.4745 10.0298 18.5698 9.99034 18.6402 9.92001C18.7105 9.84969 18.75 9.75424 18.75 9.65479C18.75 9.55533 18.7105 9.45997 18.6402 9.38965C18.5698 9.31932 18.4745 9.27979 18.375 9.27979V9.28281Z" fill="#F2F258"/>
<path d="M17.0625 27.3232H19.6875C19.787 27.3232 19.8823 27.3627 19.9527 27.433C20.023 27.5033 20.0625 27.5988 20.0625 27.6982C20.0625 27.7977 20.023 27.8931 19.9527 27.9634C19.8823 28.0337 19.787 28.0732 19.6875 28.0732H17.0625C16.963 28.0732 16.8677 28.0337 16.7973 27.9634C16.727 27.8931 16.6875 27.7977 16.6875 27.6982C16.6875 27.5988 16.727 27.5033 16.7973 27.433C16.8677 27.3627 16.963 27.3232 17.0625 27.3232Z" fill="#576D7E"/>
<path d="M15.8145 23.9482C15.7974 23.9482 15.781 23.955 15.7689 23.9671C15.7568 23.9792 15.75 23.9956 15.75 24.0127V26.9482C15.75 27.3637 16.0845 27.6982 16.5 27.6982H20.25C20.6655 27.6982 21 27.3637 21 26.9482V24.0127C21 23.9956 20.9932 23.9792 20.9811 23.9671C20.969 23.955 20.9526 23.9482 20.9355 23.9482H15.8145Z" fill="#34485C"/>
<path fill-rule="evenodd" clip-rule="evenodd" d="M15.75 24.6514V25.4014H19.875V24.6514H15.75ZM15.75 26.0764V26.8264H19.875V26.0764H15.75Z" fill="#576D7E"/>
</svg>
