<svg width="36" height="36" viewBox="0 0 36 36" fill="none" xmlns="http://www.w3.org/2000/svg">
<rect width="36" height="36" rx="18" fill="white"/>
<rect width="36" height="36" rx="18" fill="#F0F8E6" fill-opacity="0.2"/>
<rect x="0.4" y="0.4" width="35.2" height="35.2" rx="17.6" stroke="#D0E8B1" stroke-opacity="0.5" stroke-width="0.8"/>
<path d="M21.75 25.5C25.8921 25.5 29.25 22.1421 29.25 18C29.25 13.8579 25.8921 10.5 21.75 10.5C17.6079 10.5 14.25 13.8579 14.25 18C14.25 22.1421 17.6079 25.5 21.75 25.5Z" fill="#67B502"/>
<path d="M21.7501 22.7675C24.3861 22.7675 26.5231 20.6318 26.5231 17.9974C26.5231 15.363 24.3861 13.2275 21.7501 13.2275C19.114 13.2275 16.9771 15.363 16.9771 17.9974C16.9771 20.6318 19.114 22.7675 21.7501 22.7675Z" fill="#F0F8E6"/>
<path fill-rule="evenodd" clip-rule="evenodd" d="M21.744 14.6255C21.6447 14.6271 21.55 14.668 21.4809 14.7392C21.4117 14.8105 21.3736 14.9065 21.375 15.0058V15.3358C20.64 15.4903 20.064 16.0842 20.064 16.8327C20.064 17.7049 20.844 18.3741 21.75 18.3741C22.2975 18.3741 22.686 18.7453 22.686 19.1645C22.686 19.5845 22.2975 19.9543 21.75 19.9543C21.2025 19.9543 20.814 19.5838 20.814 19.1645C20.8215 18.6575 20.0565 18.6575 20.064 19.1645C20.064 19.9333 20.652 20.5011 21.375 20.6631V20.996C21.375 21.0954 21.4145 21.1908 21.4848 21.2611C21.5552 21.3314 21.6506 21.371 21.75 21.371C21.8495 21.371 21.9448 21.3314 22.0152 21.2611C22.0855 21.1908 22.125 21.0954 22.125 20.996V20.6614C22.86 20.5069 23.436 19.913 23.436 19.1645C23.436 18.293 22.656 17.6241 21.75 17.6241C21.2025 17.6241 20.814 17.2519 20.814 16.8327C20.814 16.4187 21.1935 16.0558 21.729 16.0461C21.7432 16.0469 21.7575 16.0469 21.7718 16.0461C22.3073 16.0566 22.686 16.418 22.686 16.8312C22.6785 17.3382 23.4435 17.3382 23.436 16.8312C23.436 16.0625 22.848 15.4954 22.125 15.3327V15.0042C22.1257 14.954 22.1163 14.9042 22.0974 14.8577C22.0785 14.8112 22.0505 14.769 22.0149 14.7336C21.9794 14.6981 21.9371 14.6702 21.8906 14.6514C21.844 14.6325 21.7942 14.6233 21.744 14.6241V14.6255Z" fill="#333333"/>
<g filter="url(#filter0_d_816_1031)">
<path d="M14.253 25.5163C18.3952 25.5163 21.7531 22.1584 21.7531 18.0162C21.7531 13.874 18.3952 10.5161 14.253 10.5161C10.1108 10.5161 6.75293 13.874 6.75293 18.0162C6.75293 22.1584 10.1108 25.5163 14.253 25.5163Z" fill="#67B502"/>
<path d="M14.2528 22.7837C16.8887 22.7837 19.0255 20.648 19.0255 18.0136C19.0255 15.3792 16.8887 13.2437 14.2528 13.2437C11.6168 13.2437 9.47998 15.3792 9.47998 18.0136C9.47998 20.648 11.6168 22.7837 14.2528 22.7837Z" fill="#F0F8E6"/>
<path fill-rule="evenodd" clip-rule="evenodd" d="M14.244 15.0474C14.1447 15.049 14.05 15.0898 13.9809 15.1611C13.9117 15.2324 13.8736 15.3284 13.875 15.4277V15.7577C13.14 15.9122 12.564 16.5061 12.564 17.2546C12.564 18.1268 13.344 18.7959 14.25 18.7959C14.7975 18.7959 15.186 19.1672 15.186 19.5864C15.186 20.0064 14.7975 20.3761 14.25 20.3761C13.7025 20.3761 13.314 20.0057 13.314 19.5864C13.3215 19.0794 12.5565 19.0794 12.564 19.5864C12.564 20.3552 13.152 20.9229 13.875 21.0849V21.4178C13.875 21.5173 13.9145 21.6126 13.9848 21.683C14.0552 21.7533 14.1506 21.7928 14.25 21.7928C14.3495 21.7928 14.4448 21.7533 14.5152 21.683C14.5855 21.6126 14.625 21.5173 14.625 21.4178V21.0833C15.36 20.9288 15.936 20.3349 15.936 19.5864C15.936 18.7149 15.156 18.0459 14.25 18.0459C13.7025 18.0459 13.314 17.6738 13.314 17.2546C13.314 16.8406 13.6935 16.4777 14.229 16.4679C14.2432 16.4688 14.2575 16.4688 14.2718 16.4679C14.8073 16.4784 15.186 16.8399 15.186 17.2531C15.1785 17.7601 15.9435 17.7601 15.936 17.2531C15.936 16.4844 15.348 15.9173 14.625 15.7546V15.4261C14.6257 15.3759 14.6163 15.3261 14.5974 15.2796C14.5785 15.2331 14.5505 15.1909 14.5149 15.1554C14.4794 15.12 14.4371 15.092 14.3906 15.0732C14.344 15.0544 14.2942 15.0451 14.244 15.0459V15.0474Z" fill="#333333"/>
</g>
<defs>
<filter id="filter0_d_816_1031" x="6.75293" y="10.4224" width="15.375" height="15.375" filterUnits="userSpaceOnUse" color-interpolation-filters="sRGB">
<feFlood flood-opacity="0" result="BackgroundImageFix"/>
<feColorMatrix in="SourceAlpha" type="matrix" values="0 0 0 0 0 0 0 0 0 0 0 0 0 0 0 0 0 0 127 0" result="hardAlpha"/>
<feOffset dx="0.1875" dy="0.09375"/>
<feGaussianBlur stdDeviation="0.09375"/>
<feComposite in2="hardAlpha" operator="out"/>
<feColorMatrix type="matrix" values="0 0 0 0 0 0 0 0 0 0 0 0 0 0 0 0 0 0 0.25 0"/>
<feBlend mode="normal" in2="BackgroundImageFix" result="effect1_dropShadow_816_1031"/>
<feBlend mode="normal" in="SourceGraphic" in2="effect1_dropShadow_816_1031" result="shape"/>
</filter>
</defs>
</svg>
