<svg width="24" height="24" viewBox="0 0 24 24" fill="none" xmlns="http://www.w3.org/2000/svg">
<path d="M8.25 7.5C8.25 5.84531 9.59531 4.5 11.25 4.5H12.75C14.4047 4.5 15.75 5.84531 15.75 7.5V7.66875C15.75 8.69063 15.2297 9.64219 14.3719 10.1906L12.3937 11.4609C11.2125 12.2203 10.5 13.5281 10.5 14.9297V15C10.5 15.8297 11.1703 16.5 12 16.5C12.8297 16.5 13.5 15.8297 13.5 15V14.9344C13.5 14.55 13.6969 14.1937 14.0156 13.9875L15.9937 12.7172C17.7094 11.6109 18.75 9.7125 18.75 7.66875V7.5C18.75 4.18594 16.0641 1.5 12.75 1.5H11.25C7.93594 1.5 5.25 4.18594 5.25 7.5C5.25 8.32969 5.92031 9 6.75 9C7.57969 9 8.25 8.32969 8.25 7.5ZM12 22.5C12.4973 22.5 12.9742 22.3025 13.3258 21.9508C13.6775 21.5992 13.875 21.1223 13.875 20.625C13.875 20.1277 13.6775 19.6508 13.3258 19.2992C12.9742 18.9475 12.4973 18.75 12 18.75C11.5027 18.75 11.0258 18.9475 10.6742 19.2992C10.3225 19.6508 10.125 20.1277 10.125 20.625C10.125 21.1223 10.3225 21.5992 10.6742 21.9508C11.0258 22.3025 11.5027 22.5 12 22.5Z" fill="#67B502"/>
</svg>
