<svg width="21" height="21" viewBox="0 0 21 21" fill="none" xmlns="http://www.w3.org/2000/svg">
<path d="M13.5 19.9995V11.9995C13.5 11.7343 13.3946 11.4799 13.2071 11.2924C13.0196 11.1049 12.7652 10.9995 12.5 10.9995H8.5C8.23478 10.9995 7.98043 11.1049 7.79289 11.2924C7.60536 11.4799 7.5 11.7343 7.5 11.9995V19.9995" stroke="#67B502" stroke-width="2" stroke-linecap="round" stroke-linejoin="round"/>
<path d="M1.5 8.99948C1.49993 8.70855 1.56333 8.4211 1.68579 8.1572C1.80824 7.89329 1.9868 7.65928 2.209 7.47148L9.209 1.47248C9.56999 1.16739 10.0274 1 10.5 1C10.9726 1 11.43 1.16739 11.791 1.47248L18.791 7.47148C19.0132 7.65928 19.1918 7.89329 19.3142 8.1572C19.4367 8.4211 19.5001 8.70855 19.5 8.99948V17.9995C19.5 18.5299 19.2893 19.0386 18.9142 19.4137C18.5391 19.7888 18.0304 19.9995 17.5 19.9995H3.5C2.96957 19.9995 2.46086 19.7888 2.08579 19.4137C1.71071 19.0386 1.5 18.5299 1.5 17.9995V8.99948Z" stroke="#67B502" stroke-width="2" stroke-linecap="round" stroke-linejoin="round"/>
</svg>
