<svg width="25" height="25" viewBox="0 0 25 25" fill="none" xmlns="http://www.w3.org/2000/svg">
<g clip-path="url(#clip0_816_450)">
<path d="M11.5 7.5C12.6046 7.5 13.5 6.60457 13.5 5.5C13.5 4.39543 12.6046 3.5 11.5 3.5C10.3954 3.5 9.5 4.39543 9.5 5.5C9.5 6.60457 10.3954 7.5 11.5 7.5Z" stroke="#67B502" stroke-width="1.75" stroke-linecap="round" stroke-linejoin="round"/>
<path d="M18.5 11.5C19.6046 11.5 20.5 10.6046 20.5 9.5C20.5 8.39543 19.6046 7.5 18.5 7.5C17.3954 7.5 16.5 8.39543 16.5 9.5C16.5 10.6046 17.3954 11.5 18.5 11.5Z" stroke="#67B502" stroke-width="1.75" stroke-linecap="round" stroke-linejoin="round"/>
<path d="M20.5 19.5C21.6046 19.5 22.5 18.6046 22.5 17.5C22.5 16.3954 21.6046 15.5 20.5 15.5C19.3954 15.5 18.5 16.3954 18.5 17.5C18.5 18.6046 19.3954 19.5 20.5 19.5Z" stroke="#67B502" stroke-width="1.75" stroke-linecap="round" stroke-linejoin="round"/>
<path d="M9.49975 11.5C10.1564 11.5 10.8065 11.6293 11.4132 11.8806C12.0198 12.1319 12.571 12.5002 13.0353 12.9645C13.4996 13.4288 13.8679 13.98 14.1191 14.5866C14.3704 15.1932 14.4997 15.8434 14.4997 16.5V20C14.4995 20.8365 14.1996 21.6452 13.6546 22.2796C13.1095 22.9141 12.3552 23.3324 11.5283 23.4587C10.7015 23.585 9.8567 23.4111 9.14704 22.9683C8.43738 22.5255 7.90976 21.8432 7.65975 21.045C7.23308 19.6683 6.33308 18.7667 4.95975 18.34C4.16193 18.0901 3.47991 17.5629 3.03711 16.8538C2.5943 16.1446 2.41996 15.3004 2.54564 14.4739C2.67131 13.6473 3.08869 12.8931 3.72226 12.3476C4.35582 11.8021 5.16372 11.5015 5.99975 11.5H9.49975Z" stroke="#67B502" stroke-width="1.75" stroke-linecap="round" stroke-linejoin="round"/>
</g>
<defs>
<clipPath id="clip0_816_450">
<rect width="24" height="24" fill="white" transform="translate(0.5 0.5)"/>
</clipPath>
</defs>
</svg>
